<svg width="1193" height="746" fill="none" xmlns="http://www.w3.org/2000/svg"><g clip-path="url(#clip0)" fill="#F8F8F8"><path d="M818.848 647.787c18.131-16.149 36.921-29.661 51.425-47.129 17.472-20.763 33.295-42.515 32.965-71.517-.659-45.481-40.217-70.858-80.764-51.084-45.162 22.082-80.434 57.016-117.025 89.974-51.426 46.469-104.169 90.962-166.143 123.26-70.875 36.912-145.376 57.346-226.14 53.72-91.642-4.284-174.384-68.88-192.515-154.899-15.164-71.847 3.626-137.102 51.096-193.13 18.79-22.081 43.843-35.264 75.16-38.23-23.076 30.98-30.658 62.619-16.483 97.224 10.879 26.366 31.317 40.208 60.326 39.878 35.932-.329 67.249-14.501 97.576-30.98 63.623-34.934 122.3-77.449 179.659-121.612 68.237-52.732 134.827-107.111 210.316-149.626 51.096-28.673 104.829-47.459 163.506-49.766 99.553-3.954 175.373 44.163 192.843 142.705 9.23 53.391 2.31 105.793-23.4 154.9-42.53 81.734-98.57 150.285-184.277 189.834-28.02 12.853-57.029 22.74-88.676 21.422-4.285-.33-8.9-.659-13.186-1.648-1.318-.33-2.966-1.648-6.263-3.296zM186.911 438.509c-25.713 40.537-38.899 82.063-33.295 126.885 8.571 67.892 51.755 108.1 113.399 129.852 58.348 20.433 117.026 10.876 174.385-5.933 31.316-9.228 31.976-9.887 13.845-37.241-15.164-23.07-27.361-46.14-20.768-75.143.989-3.955 0-7.58-2.967-10.546-15.164-14.172-30.327-28.673-45.491-42.845-21.098-19.774-35.932 9.228-54.722 7.251-3.626-.33-7.582 1.648-11.208 2.307-57.689 11.865-106.147-13.842-124.937-66.903-3.297-8.24-5.274-16.479-8.241-27.684z"/><path d="M301.299 196.932c-13.186 44.492-7.582 86.348-.33 128.533-8.571 0-10.219-6.262-13.515-10.217C196.47 198.909 105.487 82.57 14.504-33.44c-3.296-4.284-6.922-8.569-9.56-13.512-3.626-6.262-7.911-12.854-2.307-19.775 5.274-6.261 12.856-5.932 19.779-3.954C59.666-60.794 95.268-46.623 131.2-33.77 264.049 12.37 396.897 59.5 529.746 105.31c44.173 15.161 89.664 14.502 134.167-.988C825.111 48.294 986.639-8.063 1147.84-64.09c9.89-3.296 19.78-7.25 30.33-7.25 13.18 0 18.13 7.58 12.85 19.444-2.97 6.921-7.91 13.183-12.52 19.115-41.21 52.732-82.42 105.464-123.62 158.195-3.63 4.614-5.28 11.535-15.17 8.24-92.629-31.31-179.656-11.206-263.057 32.627-65.93 34.606-124.607 80.087-182.955 125.238-61.974 48.118-123.948 95.906-191.197 137.103-10.219 6.261-14.175 6.261-18.79-6.262-25.053-70.529-51.425-141.058-77.467-211.257-.989-3.625-2.308-7.25-4.945-14.171zm128.893 59.652c-8.242-12.523-13.516-25.377-16.153-38.23-4.286-23.07-19.449-30.65-39.888-33.616-4.944-.66-9.889-1.648-14.504-2.307-8.241-1.319-10.549.659-7.912 9.557 14.834 53.391 76.808 102.168 131.86 103.486 5.604 0 8.9 0 6.593-6.591-9.23-28.014-24.394-51.743-48.788-71.847-4.945 14.171-3.956 27.684-11.208 39.548zm166.145 489.415c-15.823-.329-35.932-15.49-40.217-29.661-1.648-5.933 1.978-6.262 5.274-8.24 45.492-25.706 87.687-55.698 126.585-90.632 2.638-2.307 5.604-7.251 9.56-3.626 3.956 3.296 0 6.921-1.978 9.888-21.427 34.275-42.854 68.551-64.94 102.826-7.912 12.195-19.12 19.445-34.284 19.445z"/></g><defs><clipPath id="clip0"><path fill="#fff" transform="translate(0 -72)" d="M0 0h1193v818H0z"/></clipPath></defs></svg>