<svg width="332" height="178" fill="none" xmlns="http://www.w3.org/2000/svg"><g clip-path="url(#clip0)"><path d="M33.092 28.531c-2.346-7.59-1.824-15.967-12.248-20.94C17.977 6.28 4.687.783 4.687.783s-4.17 15.444 8.86 27.747l9.381 5.497c1.043.524 2.607.524 3.649 0l5.472-3.14c.782-.524 1.303-1.572 1.043-2.357z" fill="#1F1F1F" stroke="#fff" stroke-width="1.591" stroke-miterlimit="10" stroke-linecap="round" stroke-linejoin="round"/><path d="M10.678 9.423c.52 1.57 1.042 3.141 1.824 4.712.521 1.57 1.042 3.14 2.085 4.45 1.042 1.832 2.866 3.14 4.69 4.45.522.523 2.085 2.094 2.867 2.094 1.303 0 3.127-1.31 3.127-2.094 0-1.571-2.085-3.665-3.127-4.974-1.303-1.832-3.127-3.403-4.951-4.973-1.043-.786-6.515-3.665-6.515-3.665z" stroke="#fff" stroke-width="1.591" stroke-miterlimit="10" stroke-linecap="round" stroke-linejoin="round"/><path d="M52.9 28.531c2.345-7.59 1.563-15.967 12.248-20.94C68.014 6.28 81.305.783 81.305.783s4.17 15.444-8.86 27.747l-9.382 5.497c-1.042.524-2.606.524-3.648 0l-5.473-3.14c-.782-.524-1.303-1.572-1.042-2.357z" fill="#1F1F1F" stroke="#fff" stroke-width="1.591" stroke-miterlimit="10" stroke-linecap="round" stroke-linejoin="round"/><path d="M75.31 9.423c-.522 1.57-1.043 3.141-1.825 4.712-.521 1.57-1.042 3.14-2.085 4.45-1.303 1.832-2.866 3.14-4.69 4.45-.522.523-2.085 1.832-2.867 2.094-1.303 0-3.127-1.31-3.127-2.094 0-1.571 2.085-3.665 3.127-4.974 1.303-1.832 3.127-3.403 5.212-4.973.782-.786 6.254-3.665 6.254-3.665z" stroke="#fff" stroke-width="1.591" stroke-miterlimit="10" stroke-linecap="round" stroke-linejoin="round"/><path fill-rule="evenodd" clip-rule="evenodd" d="M180.85 56.803c78.7-22.774 114.141 70.153 150.103 42.667 0 0 4.952 17.277-29.447 21.989-65.149 8.9-71.404-39.789-119.614-58.636l-1.042-6.02z" fill="#1F1F1F" stroke="#fff" stroke-width="1.591" stroke-miterlimit="10" stroke-linecap="round" stroke-linejoin="round"/><path fill-rule="evenodd" clip-rule="evenodd" d="M290.298 93.188c14.854 10.209 27.884 15.968 40.913 6.02 0 0 4.952 17.277-29.447 21.989-13.551 1.832-24.757 1.309-34.138-1.309-7.036-4.712-9.121-9.162-9.903-9.424-1.042-.261 16.939 3.403 19.024 3.927 1.824.523-12.769-7.591-19.806-14.397 2.346.523 18.763 3.664 19.024 3.926-9.382-6.806-9.642-12.826-9.642-12.826 4.43 2.88 15.114 7.59 24.757 9.162-5.994-3.665-8.861-6.545-9.382-9.162-.261.523 3.388 1.309 8.6 2.094zm-145.666 3.141c2.866 4.45 7.036 8.114 10.945 12.041 4.169 4.188 18.502 19.108 24.496 19.894 3.909.523-1.824-5.759 1.824-6.806.782-.262.782-2.88 1.043-3.403 2.605-2.356-3.388-11.518-4.431-14.135-1.303-2.88-3.909-7.068-3.909-10.733 0-4.973-29.968 3.142-29.968 3.142z" fill="#1F1F1F" stroke="#fff" stroke-width="1.591" stroke-miterlimit="10" stroke-linecap="round" stroke-linejoin="round"/><path fill-rule="evenodd" clip-rule="evenodd" d="M48.21 54.447c-4.43 4.45-6.516 10.994-7.297 17.276-1.043 8.377 2.606 16.491 7.818 23.035 2.345 2.88 4.43 6.021 7.296 8.377 3.127 3.141 6.255 3.926 10.424 5.235 4.43 1.571 9.382 5.497 14.333 4.45l29.708-9.423s.782 1.57 2.085 4.711c2.345-.523 6.775-1.309 16.417-3.664 18.763-4.45 28.145-2.095 28.145-2.095s29.447 19.109 39.871 26.439c4.169 3.141 8.339 6.282 13.812 4.188.521-.262.781-.262 1.042-.524.261-.261 7.297.262 7.297 0 1.563-3.141-4.43-8.376-5.733-11.517s-3.128-5.759-3.909-9.162c-5.734-19.894 1.563-30.888-13.03-48.688-26.32-31.674-74.531-3.665-105.542-4.45-6.515-.262-13.29-.785-19.545-3.141-2.084-.786-4.17-1.833-6.254-3.142-1.563-1.047-3.909-3.926-5.733-3.926-1.042 0-1.824.523-2.606.785-2.085 1.047-4.43 2.356-6.254 3.927-1.043 0-1.564.523-2.346 1.309z" fill="#1F1F1F" stroke="#fff" stroke-width="1.591" stroke-miterlimit="10" stroke-linecap="round" stroke-linejoin="round"/><path fill-rule="evenodd" clip-rule="evenodd" d="M109.969 108.107c-2.867 2.095-3.388 6.545-3.909 9.947-.521 3.665.782 8.9-3.127 11.256-1.564.786-3.128 1.047-4.952 1.047-1.824 0-3.648-.261-5.472-1.047-3.127-1.57-5.212-4.711-6.776-7.591-.52-.785-4.69-9.162-5.472-8.9.52 0 26.581-4.188 29.708-4.712z" fill="#1F1F1F" stroke="#fff" stroke-width="1.591" stroke-miterlimit="10" stroke-linecap="round" stroke-linejoin="round"/><path fill-rule="evenodd" clip-rule="evenodd" d="M156.875 103.136h2.606c-.26-1.832-1.042-2.617-2.084-4.188-1.043-1.57-1.564-3.665-3.388-4.712-2.606-1.57-6.255-.262-8.861.524-8.86 2.356-18.241 3.403-27.362 2.617-2.867-.261-5.473-.523-8.339-.261-6.776.523-11.988 6.806-17.981 9.947a107.057 107.057 0 01-10.945 5.497c21.368 1.309 43.519-2.094 64.367-7.068 2.345-.523 4.43-1.047 6.775-1.832 1.825-.262 3.388-.262 5.212-.524z" fill="#1F1F1F" stroke="#fff" stroke-width="1.591" stroke-miterlimit="10" stroke-linecap="round" stroke-linejoin="round"/><path fill-rule="evenodd" clip-rule="evenodd" d="M94.332 101.565c-2.867 4.188-4.952 9.162-7.037 13.874-1.303 2.879-2.345 6.02-3.648 9.161-.782 2.618-1.824 5.236-4.17 7.068-1.824 1.047-4.17.785-5.993 0-1.043-.262-1.824-.785-2.606-1.571-.782-.785-1.303-1.57-1.824-2.617-1.303-3.403-1.043-7.853-1.564-11.518-.521-4.188-.782-8.376-1.303-12.826-1.042-9.162-1.824-18.586-2.606-27.747" fill="#1F1F1F"/><path d="M94.332 101.565c-2.867 4.188-4.952 9.162-7.037 13.874-1.303 2.879-2.345 6.02-3.648 9.161-.782 2.618-1.824 5.236-4.17 7.068-1.824 1.047-4.17.785-5.993 0-1.043-.262-1.824-.785-2.606-1.57-.782-.786-1.303-1.571-1.824-2.618-1.303-3.403-1.043-7.853-1.564-11.518-.521-4.188-.782-8.376-1.303-12.826-1.042-9.162-1.824-18.586-2.606-27.747" stroke="#fff" stroke-width="1.591" stroke-miterlimit="10" stroke-linecap="round" stroke-linejoin="round"/><path fill-rule="evenodd" clip-rule="evenodd" d="M225.674 140.305c-.782 5.235.782 32.721-.261 35.338-1.303 2.618-13.811 1.571-15.636 1.047-2.084-.261-.781-3.664 2.085-6.282 2.867-2.618 7.818-1.047 8.079-3.665.26-2.617-2.606-18.323-4.691-23.82s-8.078-6.806-18.502-14.397c-1.825-1.309-4.43-2.88-7.036-4.974-2.867-2.618-3.909-3.141-4.17-4.188-.782-1.832 14.333 4.45 15.896 5.235 1.564.785-4.43-6.806-5.472-8.376-1.043-1.833 1.824 1.57 7.297 5.497 5.472 3.926 10.423 6.02 12.248 6.806 1.042.523-1.303-5.236-3.128-9.947 6.255 12.041 15.636 9.423 13.291 21.726z" fill="#1F1F1F" stroke="#fff" stroke-width="1.591" stroke-miterlimit="10" stroke-linecap="round" stroke-linejoin="round"/><path fill-rule="evenodd" clip-rule="evenodd" d="M189.452 131.928c1.303 9.162-2.085 2.88-11.206 15.183-9.121 12.303-8.86 16.753-10.945 19.109-2.085 2.356-5.994 7.067-11.206 5.235-4.951-1.832.782-4.974 6.515-10.471s9.382-20.156 11.466-28.27c1.043-3.403-3.648-9.424-9.381-15.444-.521-1.309-1.042-2.094-1.564-3.142-1.042-2.355 7.558 5.498 9.121 6.806 1.564 1.309 0-3.141.261-4.45.26-1.308 5.472 6.283 6.775 7.853 1.043 1.571.261-3.664 0-6.282 0-.524 0-.785.261-1.309 2.345 1.571 4.43 2.88 6.775 4.45 1.303 4.45 2.606 8.115 3.128 10.732zm-94.855 15.444c.782-3.927-1.042-9.947-3.648-16.23-1.564-3.403-3.388-6.805-5.212-9.947 2.085 0 5.473 1.047 5.473-1.57 0-2.618.781-7.33 2.866-4.45 2.085 3.141 4.951 5.759 4.951 5.759s0-6.806 1.564-5.497c1.564 1.308.782 8.9 3.127 5.497.782-1.309 1.564-2.618 2.345-3.665-1.042 8.376 0 19.37.261 23.82.261 5.759-6.775 24.868-10.163 29.056-1.824 2.094-4.951 2.356-7.558 2.356-2.084 0-6.254.262-7.817-1.832-2.346-3.141 5.993-6.283 7.817-7.068 4.43-.785 4.17-7.329 5.994-16.229zm-14.335-8.898c.26 5.759-11.467 30.103-14.854 34.291-3.388 4.45-14.854 1.571-15.636 1.571s-.521-1.571.26-2.88c.782-1.57 2.346-3.141 8.079-4.973 5.733-2.094 11.206-26.7 10.945-29.841 0-6.283-1.042-15.445-2.345-27.486h.26c1.043.524 2.346 3.927 2.346 6.283.26 3.664 2.606 8.638 2.345 12.826-.26 4.188 3.388-5.235 5.212-8.376 1.564-3.142 1.042 4.973 1.564 7.853.52 2.355 3.387-6.545 4.95-10.209.261-.786.783-1.309 1.043-1.571.521-.262.521 1.309.26 3.665 0 .785 0 1.57-.26 2.356-2.345 6.806-4.43 13.35-4.17 16.491z" fill="#1F1F1F" stroke="#fff" stroke-width="1.591" stroke-miterlimit="10" stroke-linecap="round" stroke-linejoin="round"/><path d="M83.129 49.472c-1.303.524-2.346 1.047-3.388 1.571l-5.473 3.141c.261 0 .522 0 .782.262-2.345 2.094-4.951 3.665-7.818 4.974.521 0 .782.261 1.303.261-.782 1.833-2.606 3.141-4.43 4.189-2.085 1.047-4.17 2.094-6.515 2.617l1.564.785c-2.346 1.571-4.691 3.142-7.036 4.45-4.17 2.095-7.818 4.974-12.77 3.142-1.303-.524-1.824-1.047-2.605-2.356-.782-1.047-1.303-1.57-2.346-2.094-2.345-1.571-4.69-3.142-7.036-4.45-4.951-2.88-9.903-5.497-15.375-7.853-.26-.262-.782-.262-.782-.786.782-.261 1.303-.261 2.085-.785-3.649-2.094-7.297-3.665-11.206-4.712-.26 0-.26 0-.521-.262 0-.261.26-.523.521-.523.521 0 1.042-.262 1.564-.262-1.043-.261-2.085-.523-3.127-1.309.52-.785 2.345-2.355 3.387-2.617 1.564-.785-1.563-1.833-1.303-3.403s3.649 1.309 3.127 0c-.52-1.309 1.564-.524 4.691 0 2.606.523 5.212-8.638 5.733-10.47v-.263c0-.523.26-.785.521-1.308C20.065 20.155 30.75 12.04 42.996 12.04c12.249 0 22.673 8.115 26.06 19.109.261.523.261 1.047.522 1.57v.262c.52 1.57 3.127 10.994 5.733 10.47 2.866-.523 4.951-1.308 4.69 0-.52 1.31 2.867-1.57 3.128 0 .26 1.31-2.085 2.357-1.825 3.142 0 0 0 .262.261.262 0 0 .26 0 .26.262 2.085.523 2.607 1.832 1.304 2.355z" fill="#1F1F1F" stroke="#fff" stroke-width="1.591" stroke-miterlimit="10" stroke-linecap="round" stroke-linejoin="round"/><path d="M50.552 174.071c.26-1.047 1.042-2.094 2.084-2.879 1.043-.785 2.346-.785 3.388-.524m26.065 1.31c.782-1.832 2.345-3.403 4.43-3.665m68.794 2.618c1.303-1.309 2.606-2.094 4.431-2.618m50.817 7.854c0-1.309.781-2.356 1.824-2.88 1.042-.785 2.084-1.047 3.387-1.308" stroke="#fff" stroke-width="1.591" stroke-miterlimit="10" stroke-linecap="round" stroke-linejoin="round"/><path d="M69.056 30.886c-1.303 0-3.127-.524-4.17 0 .521-.262.521-1.047.521-1.57-3.387 0-6.775 1.046-9.12 3.14.26-.523.26-1.047.26-1.57-4.951 3.665-12.508 9.423-12.77 40.05v.523h-2.605v-.523c-.26-29.318-6.776-35.077-11.206-38.48-.26.524 0 1.047.26 1.571-2.084-2.094-5.211-3.141-8.078-3.141 0 .523.26 1.047.521 1.309-1.824-.786-3.648-1.047-5.472-.786l-.26-.261c-.522-.524 2.605-5.76 2.866-6.283 1.042-2.094 2.866-3.926 4.43-5.759 3.91-3.664 8.6-5.497 13.812-7.067 0 0 .26 0 .26-.262.26-.262 0-.523-.26-.785-.522-.524-1.043-.786-1.824-1.31 1.303-.26 2.606.263 3.909.786 6.254 2.094 12.769 2.356 18.502 6.283 2.345 1.832 4.69 3.926 6.254 6.282.782 1.047 1.564 2.356 2.346 3.665.26.523 1.824 4.188 1.824 4.188z" fill="#1F1F1F" stroke="#fff" stroke-width="1.591" stroke-miterlimit="10" stroke-linecap="round" stroke-linejoin="round"/><path d="M32.618 47.53a16.558 16.558 0 00-1.052-2.465c-.144-.268-.286-.55-.473-.793-.044-.058-.662-.66-.687-.565-.047.177-.037.363-.104.537-.084.22-.183.433-.286.645-.02.04-.25.525-.272.407-.024-.133-.133-.283-.185-.41a20.188 20.188 0 00-.524-1.17c-.138-.283-.399-.62-.399-.947 0-.026.013-.086-.019-.098a86.85 86.85 0 00-.717-.253c-.318-.11-.713-.252-1.056-.252-.137 0-.25.006-.376-.057-.121-.06-.26-.066-.385-.118-.077-.032-.164-.078-.25-.078-.042 0-.132-.045-.167-.025-.145.081.183.693.218.768.248.535.508 1.067.847 1.554.37.534.8 1.107 1.362 1.459.331.208.711.33 1.049.526.35.203.662.452 1.041.604.422.17.833.37 1.25.55.122.053.237.103.367.132.072.016.204.035.251.09.07.08.237.025.305.078.075.06.136.05.234.05m19.832-.169c.284-.835.633-1.684 1.052-2.465.144-.268.286-.55.473-.793.044-.058.661-.66.687-.565.047.177.038.363.104.537.084.22.184.433.286.645.02.04.25.525.272.407.025-.133.133-.283.185-.41.163-.398.337-.782.524-1.17.138-.283.399-.62.399-.947 0-.026-.013-.086.019-.098.238-.085.478-.17.717-.253.318-.11.713-.252 1.056-.252.137 0 .25.006.376-.057.121-.06.26-.066.385-.118.077-.032.164-.078.25-.078.042 0 .133-.045.167-.025.145.081-.183.693-.218.768-.248.535-.508 1.067-.847 1.554-.37.534-.8 1.107-1.362 1.459-.331.208-.711.33-1.049.526-.35.203-.662.452-1.041.604-.422.17-.833.37-1.25.55-.122.053-.237.103-.367.132-.072.016-.204.035-.251.09-.07.08-.237.025-.305.078-.075.06-.135.05-.234.05" stroke="#fff" stroke-linecap="round" stroke-linejoin="round"/><path d="M36.22 26.177c1.042 1.047 1.824 2.356 2.345 3.926.521-1.309.521-3.14.521-4.711 1.043 2.617 1.825 5.235 1.825 8.114.26-.523.52-1.047 1.042-1.57m4.953-3.927c-.26 1.047-.521 2.356-.782 3.665 1.303-.786 2.345-1.571 3.388-2.88M36.224 64.132L3.91 58.896m3.644 6.544l25.538 1.571m-20.586 7.59l23.975-4.45m12.769-6.019l32.053-5.236m-3.385 6.544L52.38 67.011m20.585 7.59l-24.236-4.45" stroke="#fff" stroke-width="1.591" stroke-miterlimit="10" stroke-linecap="round" stroke-linejoin="round"/><path d="M35.18 69.629c0-.262 0-.524.261-.524.261-.262.522-.262.782-.262 3.388-.261 14.333-.523 14.854 0 2.346 2.88-6.254 6.806-8.6 6.544-2.605 0-7.557-2.879-7.296-5.758z" fill="#1F1F1F" stroke="#fff" stroke-width="1.591" stroke-miterlimit="10" stroke-linecap="round" stroke-linejoin="round"/><path d="M180.331 101.303c.521 1.309 1.564 1.832 2.867 2.617 1.563.786 3.127 1.571 4.951 2.094-.521-1.308-1.042-2.617-1.042-3.926a52.486 52.486 0 0010.684 5.759c-.782-2.094-1.824-4.188-3.127-6.021M178.77 84.288c2.605 1.047 4.951 2.356 7.557 3.403-.261-.523-.782-.785-1.043-1.309m65.931-7.592c0 1.047 1.042 1.57 2.085 2.094 2.345 1.047 4.69 2.094 7.296 3.141a48.511 48.511 0 01-8.86.786c1.303 1.047 2.867 1.832 4.43 2.355-2.084 1.048-4.69.786-7.036 0-2.085-.523-4.43-1.046-6.515-1.832m-12.51-8.639c1.303.524 2.606 1.31 4.17 1.833-1.042.785-2.345 1.047-3.648 1.047m8.857 13.351c3.909 2.617 8.079 5.235 12.248 7.329-2.084.262-4.43 0-6.254-1.047m36.747 4.974l7.818 2.356c-2.606.785-5.212 1.308-7.818 1.832 3.387 1.047 7.036 1.832 10.423 2.356-2.084.785-4.43 1.57-6.775 1.832" stroke="#fff" stroke-width="1.591" stroke-miterlimit="10" stroke-linecap="round" stroke-linejoin="round"/></g><defs><clipPath id="clip0"><path fill="#fff" d="M0 0h332v178H0z"/></clipPath></defs></svg>