<svg width="74" height="74" fill="none" xmlns="http://www.w3.org/2000/svg"><path fill-rule="evenodd" clip-rule="evenodd" d="M1.919 21.589h70.163v3.837H1.919v-3.837z" fill="url(#paint0_linear)"/><path fill-rule="evenodd" clip-rule="evenodd" d="M10.526 12.713h3.837v1.68h4.933v-1.68h3.837v5.516H10.526v-5.516z" fill="url(#paint1_linear)"/><path fill-rule="evenodd" clip-rule="evenodd" d="M50.867 12.713h3.837v1.68h4.933v-1.68h3.837v5.516H50.867v-5.516z" fill="url(#paint2_linear)"/><path fill-rule="evenodd" clip-rule="evenodd" d="M11.552 1.074C12.264.344 13.22 0 14.197 0h5.262c.977 0 1.934.344 2.646 1.074.707.726 1.027 1.682 1.027 2.644v3.478h27.736V3.718c0-.962.32-1.918 1.027-2.644C52.607.344 53.564 0 54.541 0h5.262c.977 0 1.933.344 2.645 1.074.708.726 1.028 1.682 1.028 2.644v3.478h5.097C71.608 7.196 74 9.72 74 12.713v55.77C74 71.476 71.608 74 68.573 74H5.427C2.392 74 0 71.476 0 68.483v-55.77C0 9.72 2.392 7.196 5.427 7.196h5.097V3.718c0-.962.32-1.918 1.028-2.644zm2.81 2.763v7.196H5.426c-.825 0-1.59.714-1.59 1.68v55.77c0 .966.765 1.68 1.59 1.68h63.146c.825 0 1.59-.714 1.59-1.68v-55.77c0-.966-.765-1.68-1.59-1.68H59.64V3.837h-4.934v7.196h-35.41V3.837H14.36z" fill="url(#paint3_linear)"/><path fill-rule="evenodd" clip-rule="evenodd" d="M33.49 39.817h-7.016V35.98h7.016v3.837z" fill="url(#paint4_linear)"/><path fill-rule="evenodd" clip-rule="evenodd" d="M47.525 39.817h-7.016V35.98h7.016v3.837z" fill="url(#paint5_linear)"/><path fill-rule="evenodd" clip-rule="evenodd" d="M61.557 39.817h-7.016V35.98h7.016v3.837z" fill="url(#paint6_linear)"/><path fill-rule="evenodd" clip-rule="evenodd" d="M19.46 48.814h-7.016v-3.837h7.017v3.837z" fill="url(#paint7_linear)"/><path fill-rule="evenodd" clip-rule="evenodd" d="M33.49 48.814h-7.016v-3.837h7.016v3.837z" fill="url(#paint8_linear)"/><path fill-rule="evenodd" clip-rule="evenodd" d="M47.525 48.814h-7.016v-3.837h7.016v3.837z" fill="url(#paint9_linear)"/><path fill-rule="evenodd" clip-rule="evenodd" d="M61.557 48.814h-7.016v-3.837h7.016v3.837z" fill="url(#paint10_linear)"/><path fill-rule="evenodd" clip-rule="evenodd" d="M19.46 57.809h-7.016v-3.837h7.017v3.837z" fill="url(#paint11_linear)"/><path fill-rule="evenodd" clip-rule="evenodd" d="M33.49 57.809h-7.016v-3.837h7.016v3.837z" fill="url(#paint12_linear)"/><path fill-rule="evenodd" clip-rule="evenodd" d="M47.525 57.809h-7.016v-3.837h7.016v3.837z" fill="url(#paint13_linear)"/><defs><linearGradient id="paint1_linear" x1="37" y1="0" x2="37" y2="74" gradientUnits="userSpaceOnUse"><stop stop-color="#F18D17"/><stop offset="1" stop-color="#FF4D00"/></linearGradient><linearGradient id="paint7_linear" x1="37" y1="0" x2="37" y2="74" gradientUnits="userSpaceOnUse"><stop stop-color="#F18D17"/><stop offset="1" stop-color="#FF4D00"/></linearGradient><linearGradient id="paint2_linear" x1="37" y1="0" x2="37" y2="74" gradientUnits="userSpaceOnUse"><stop stop-color="#F18D17"/><stop offset="1" stop-color="#FF4D00"/></linearGradient><linearGradient id="paint3_linear" x1="37" y1="0" x2="37" y2="74" gradientUnits="userSpaceOnUse"><stop stop-color="#F18D17"/><stop offset="1" stop-color="#FF4D00"/></linearGradient><linearGradient id="paint4_linear" x1="37" y1="0" x2="37" y2="74" gradientUnits="userSpaceOnUse"><stop stop-color="#F18D17"/><stop offset="1" stop-color="#FF4D00"/></linearGradient><linearGradient id="paint5_linear" x1="37" y1="0" x2="37" y2="74" gradientUnits="userSpaceOnUse"><stop stop-color="#F18D17"/><stop offset="1" stop-color="#FF4D00"/></linearGradient><linearGradient id="paint6_linear" x1="37" y1="0" x2="37" y2="74" gradientUnits="userSpaceOnUse"><stop stop-color="#F18D17"/><stop offset="1" stop-color="#FF4D00"/></linearGradient><linearGradient id="paint0_linear" x1="37" y1="0" x2="37" y2="74" gradientUnits="userSpaceOnUse"><stop stop-color="#F18D17"/><stop offset="1" stop-color="#FF4D00"/></linearGradient><linearGradient id="paint8_linear" x1="37" y1="0" x2="37" y2="74" gradientUnits="userSpaceOnUse"><stop stop-color="#F18D17"/><stop offset="1" stop-color="#FF4D00"/></linearGradient><linearGradient id="paint9_linear" x1="37" y1="0" x2="37" y2="74" gradientUnits="userSpaceOnUse"><stop stop-color="#F18D17"/><stop offset="1" stop-color="#FF4D00"/></linearGradient><linearGradient id="paint10_linear" x1="37" y1="0" x2="37" y2="74" gradientUnits="userSpaceOnUse"><stop stop-color="#F18D17"/><stop offset="1" stop-color="#FF4D00"/></linearGradient><linearGradient id="paint11_linear" x1="37" y1="0" x2="37" y2="74" gradientUnits="userSpaceOnUse"><stop stop-color="#F18D17"/><stop offset="1" stop-color="#FF4D00"/></linearGradient><linearGradient id="paint12_linear" x1="37" y1="0" x2="37" y2="74" gradientUnits="userSpaceOnUse"><stop stop-color="#F18D17"/><stop offset="1" stop-color="#FF4D00"/></linearGradient><linearGradient id="paint13_linear" x1="37" y1="0" x2="37" y2="74" gradientUnits="userSpaceOnUse"><stop stop-color="#F18D17"/><stop offset="1" stop-color="#FF4D00"/></linearGradient></defs></svg>