<svg width="22" height="24" xmlns="http://www.w3.org/2000/svg"><g clip-path="url(#clip0)"><path d="M12.072 1.977c0-.54-.487-.977-1.072-.977-.585 0-1.058.437-1.058.977H0v1.287h9.956L9.69 5A8.824 8.824 0 0111 4.897c.446 0 .877.039 1.309.103l-.265-1.736H22V1.977h-9.928zM16.04 19.28a.625.625 0 00-.522-.28H6.495a.609.609 0 00-.522.28l-.993 1.447H4v1.638c0 .28.178.52.445.61a.985.985 0 00.191.025.625.625 0 00.522-.28l1.667-2.45h8.35l1.667 2.45c.114.178.318.28.522.28a.983.983 0 00.19-.025.629.629 0 00.446-.61v-1.638h-.98l-.98-1.448zm-.316-.898l1.837-1.786v-4.752c0-3.533-2.936-6.389-6.568-6.389-3.632 0-6.568 2.856-6.568 6.39v4.75l1.837 1.787h9.462zm-4.175-1.245H10.45a.724.724 0 01-.737-.717c0-.393.334-.718.737-.718h1.1c.403 0 .737.325.737.718a.742.742 0 01-.738.717zm-5.733-5.293c0-2.775 2.324-5.035 5.177-5.035 2.852 0 5.176 2.26 5.176 5.035v1.449l-1.878 1.827h-.85l-.57-.555H9.114l-.57.555h-.85l-1.878-1.827v-1.449z"/></g><defs><clipPath id="clip0"><path fill="#fff" d="M0 0h22v24H0z"/></clipPath></defs></svg>