<svg width="25" height="24" xmlns="http://www.w3.org/2000/svg"><g clip-path="url(#clip0)"><path d="M9.46 4h5.447a1 1 0 01.848.47L19.21 10h4.408a.5.5 0 01.439.74L20.098 18h-.637a6.011 6.011 0 01-1.535-.198L21.09 12H3.86l1.048 5.824A6.04 6.04 0 013.46 18h-.545l-1.24-6.821A1 1 0 012.658 10h.803V5a1 1 0 011-1h1V1h4v3zm-4 6h11.393l-2.5-4H5.46v4zm-2 10a5.978 5.978 0 004-1.528 5.978 5.978 0 004 1.528 5.978 5.978 0 004-1.528 5.978 5.978 0 004 1.528h2v2h-2a7.964 7.964 0 01-4-1.07 7.963 7.963 0 01-4 1.07 7.963 7.963 0 01-4-1.07 7.963 7.963 0 01-4 1.07h-2v-2h2z"/></g><defs><clipPath id="clip0"><path fill="#fff" transform="translate(.46)" d="M0 0h24v24H0z"/></clipPath></defs></svg>