<svg width="23" height="23" fill="none" xmlns="http://www.w3.org/2000/svg"><path d="M5.914 17.25a2.876 2.876 0 015.424 0h9.747v1.916h-9.747a2.877 2.877 0 01-5.424 0H1.918V17.25h3.996zm5.75-6.709a2.876 2.876 0 015.424 0h3.997v1.917h-3.997a2.876 2.876 0 01-5.424 0H1.918v-1.917h9.746zm-5.75-6.708a2.876 2.876 0 015.424 0h9.747V5.75h-9.747a2.876 2.876 0 01-5.424 0H1.918V3.833h3.996zM8.626 5.75a.958.958 0 100-1.917.958.958 0 000 1.917zm5.75 6.708a.958.958 0 100-1.916.958.958 0 000 1.916zm-5.75 6.708a.958.958 0 100-1.917.958.958 0 000 1.917z"/></svg>