<svg width="65" height="42" fill="none" xmlns="http://www.w3.org/2000/svg"><path fill-rule="evenodd" clip-rule="evenodd" d="M48.84 23.79a1.532 1.532 0 00-2.68 0l-8.952 15.854c-.592 1.049.151 2.356 1.34 2.356h17.904c1.189 0 1.932-1.307 1.34-2.356L48.84 23.79zm-2.799 8.703l.46 3.784h1.737l.442-3.784v-2.856h-2.639v2.856zm1.328 7.325c.398 0 .738-.118 1.022-.356.284-.239.425-.524.425-.857 0-.333-.141-.62-.425-.857a1.538 1.538 0 00-1.022-.357 1.54 1.54 0 00-1.022.357c-.283.238-.425.524-.425.857 0 .333.142.619.425.857.284.237.625.356 1.022.356z" fill="#2E2E2E"/><mask id="a" fill="#fff"><path d="M20 38c-9.374 0-17-7.626-17-17 0-9.374 7.626-17 17-17 9.374 0 17 7.626 17 17 0 9.374-7.626 17-17 17zm0-31.45C12.032 6.55 5.55 13.032 5.55 21c0 7.968 6.482 14.45 14.45 14.45 7.968 0 14.45-6.482 14.45-14.45 0-7.968-6.482-14.45-14.45-14.45z"/></mask><path d="M20 35c-7.717 0-14-6.283-14-14H0c0 11.03 8.97 20 20 20v-6zM6 21c0-7.717 6.283-14 14-14V1C8.97 1 0 9.97 0 21h6zM20 7c7.717 0 14 6.283 14 14h6C40 9.97 31.03 1 20 1v6zm14 14c0 7.717-6.283 14-14 14v6c11.03 0 20-8.97 20-20h-6zM20 3.55C10.375 3.55 2.55 11.375 2.55 21h6c0-6.311 5.139-11.45 11.45-11.45v-6zM2.55 21c0 9.625 7.825 17.45 17.45 17.45v-6c-6.311 0-11.45-5.139-11.45-11.45h-6zM20 38.45c9.625 0 17.45-7.825 17.45-17.45h-6c0 6.311-5.139 11.45-11.45 11.45v6zM37.45 21c0-9.625-7.825-17.45-17.45-17.45v6c6.311 0 11.45 5.139 11.45 11.45h6z" fill="url(#paint0_linear)" mask="url(#a)"/><mask id="b" fill="#fff"><path d="M20 9c-.552 0-1-.538-1-1.2V2.2c0-.662.448-1.2 1-1.2s1 .538 1 1.2v5.6c0 .662-.448 1.2-1 1.2z"/></mask><path d="M20 6c.75 0 1.302.373 1.598.728.29.349.402.737.402 1.072h-6c0 1.784 1.302 4.2 4 4.2V6zm2 1.8V2.2h-6v5.6h6zm0-5.6c0 .335-.112.723-.402 1.072A2.081 2.081 0 0120 4v-6c-2.698 0-4 2.416-4 4.2h6zM20 4c-.75 0-1.302-.373-1.598-.728A1.677 1.677 0 0118 2.2h6C24 .416 22.698-2 20-2v6zm-2-1.8v5.6h6V2.2h-6zm0 5.6c0-.335.112-.723.402-1.072A2.081 2.081 0 0120 6v6c2.698 0 4-2.416 4-4.2h-6z" fill="url(#paint1_linear)" mask="url(#b)"/><mask id="c" fill="#fff"><path d="M38.8 22h-5.6c-.662 0-1.2-.448-1.2-1s.538-1 1.2-1h5.6c.662 0 1.2.448 1.2 1s-.538 1-1.2 1z"/></mask><path d="M38.8 19h-5.6v6h5.6v-6zm-5.6 0c.335 0 .723.112 1.072.402.355.296.728.848.728 1.598h-6c0 2.698 2.416 4 4.2 4v-6zm1.8 2c0 .75-.373 1.302-.728 1.598A1.68 1.68 0 0133.2 23v-6c-1.784 0-4.2 1.302-4.2 4h6zm-1.8 2h5.6v-6h-5.6v6zm5.6 0a1.68 1.68 0 01-1.072-.402A2.082 2.082 0 0137 21h6c0-2.698-2.416-4-4.2-4v6zM37 21c0-.75.373-1.302.728-1.598A1.68 1.68 0 0138.8 19v6c1.784 0 4.2-1.302 4.2-4h-6z" fill="url(#paint2_linear)" mask="url(#c)"/><mask id="d" fill="#fff"><path d="M20 41c-.552 0-1-.538-1-1.2v-5.6c0-.662.448-1.2 1-1.2s1 .538 1 1.2v5.6c0 .662-.448 1.2-1 1.2z"/></mask><path d="M20 38c.75 0 1.302.373 1.598.728.29.349.402.737.402 1.072h-6c0 1.784 1.302 4.2 4 4.2v-6zm2 1.8v-5.6h-6v5.6h6zm0-5.6c0 .335-.112.723-.402 1.072A2.082 2.082 0 0120 36v-6c-2.698 0-4 2.416-4 4.2h6zM20 36c-.75 0-1.302-.373-1.598-.728A1.677 1.677 0 0118 34.2h6c0-1.784-1.302-4.2-4-4.2v6zm-2-1.8v5.6h6v-5.6h-6zm0 5.6c0-.335.112-.723.402-1.072A2.082 2.082 0 0120 38v6c2.698 0 4-2.416 4-4.2h-6z" fill="url(#paint3_linear)" mask="url(#d)"/><mask id="e" fill="#fff"><path d="M6.8 22H1.2C.538 22 0 21.552 0 21s.538-1 1.2-1h5.6c.662 0 1.2.448 1.2 1s-.538 1-1.2 1z"/></mask><path d="M6.8 19H1.2v6h5.6v-6zm-5.6 0c.335 0 .723.112 1.072.402.355.296.728.848.728 1.598h-6c0 2.698 2.416 4 4.2 4v-6zM3 21c0 .75-.373 1.302-.728 1.598A1.68 1.68 0 011.2 23v-6C-.584 17-3 18.302-3 21h6zm-1.8 2h5.6v-6H1.2v6zm5.6 0a1.68 1.68 0 01-1.072-.402A2.081 2.081 0 015 21h6c0-2.698-2.416-4-4.2-4v6zM5 21c0-.75.373-1.302.728-1.598A1.68 1.68 0 016.8 19v6c1.784 0 4.2-1.302 4.2-4H5z" fill="url(#paint4_linear)" mask="url(#e)"/><mask id="f" fill="#fff"><path d="M20 26c-2.757 0-5-2.243-5-5s2.243-5 5-5 5 2.243 5 5-2.243 5-5 5zm0-7.5a2.503 2.503 0 00-2.5 2.5c0 1.378 1.122 2.5 2.5 2.5s2.5-1.122 2.5-2.5-1.122-2.5-2.5-2.5z"/></mask><path d="M20 23c-1.1 0-2-.9-2-2h-6c0 4.413 3.586 8 8 8v-6zm-2-2c0-1.1.9-2 2-2v-6c-4.414 0-8 3.587-8 8h6zm2-2c1.1 0 2 .9 2 2h6c0-4.413-3.587-8-8-8v6zm2 2c0 1.1-.9 2-2 2v6c4.413 0 8-3.587 8-8h-6zm-2-5.5a5.503 5.503 0 00-5.5 5.5h6c0 .279-.221.5-.5.5v-6zM14.5 21c0 3.035 2.465 5.5 5.5 5.5v-6c.279 0 .5.221.5.5h-6zm5.5 5.5c3.035 0 5.5-2.465 5.5-5.5h-6c0-.279.221-.5.5-.5v6zm5.5-5.5c0-3.035-2.465-5.5-5.5-5.5v6a.497.497 0 01-.5-.5h6z" fill="url(#paint5_linear)" mask="url(#f)"/><defs><linearGradient id="paint0_linear" x1="20" y1="4" x2="20" y2="38" gradientUnits="userSpaceOnUse"><stop stop-color="#F18D17"/><stop offset="1" stop-color="#FF4D00"/></linearGradient><linearGradient id="paint1_linear" x1="20" y1="1" x2="20" y2="9" gradientUnits="userSpaceOnUse"><stop stop-color="#F18D17"/><stop offset="1" stop-color="#FF4D00"/></linearGradient><linearGradient id="paint2_linear" x1="36" y1="20" x2="36" y2="22" gradientUnits="userSpaceOnUse"><stop stop-color="#F18D17"/><stop offset="1" stop-color="#FF4D00"/></linearGradient><linearGradient id="paint3_linear" x1="20" y1="33" x2="20" y2="41" gradientUnits="userSpaceOnUse"><stop stop-color="#F18D17"/><stop offset="1" stop-color="#FF4D00"/></linearGradient><linearGradient id="paint4_linear" x1="4" y1="20" x2="4" y2="22" gradientUnits="userSpaceOnUse"><stop stop-color="#F18D17"/><stop offset="1" stop-color="#FF4D00"/></linearGradient><linearGradient id="paint5_linear" x1="20" y1="16" x2="20" y2="26" gradientUnits="userSpaceOnUse"><stop stop-color="#F18D17"/><stop offset="1" stop-color="#FF4D00"/></linearGradient></defs></svg>